<svg id="Group_1" data-name="Group 1" xmlns="http://www.w3.org/2000/svg" width="704" height="745.194" viewBox="0 0 704 745.194">
  <rect id="Rectangle_1" data-name="Rectangle 1" width="2.573" height="13.894" transform="matrix(0.894, 0.448, -0.448, 0.894, 199.654, 124.555)" fill="#fff"/>
  <ellipse id="Ellipse_1" data-name="Ellipse 1" cx="352" cy="18" rx="352" ry="18" transform="translate(0 709.194)" fill="#3f3d56"/>
  <path id="Path_26" data-name="Path 26" d="M805.654,250.35h-4V140.8a63.4,63.4,0,0,0-63.4-63.4H506.166a63.4,63.4,0,0,0-63.4,63.4V741.779a63.4,63.4,0,0,0,63.4,63.4H738.253a63.4,63.4,0,0,0,63.4-63.4V328.326h4Z" transform="translate(-248 -77.403)" fill="#3f3d56"/>
  <path id="Path_27" data-name="Path 27" d="M788.16,141.247v600.09a47.35,47.35,0,0,1-47.349,47.35H507.61a47.351,47.351,0,0,1-47.35-47.349V141.247A47.351,47.351,0,0,1,507.609,93.9H535.9a22.507,22.507,0,0,0,20.83,30.99H689.69A22.507,22.507,0,0,0,710.52,93.9h30.29a47.351,47.351,0,0,1,47.35,47.349Z" transform="translate(-248 -77.403)" fill="#fff"/>
  <rect id="Rectangle_2" data-name="Rectangle 2" width="289.855" height="332" rx="4.589" transform="translate(231.283 133.219)" fill="#e6e6e6"/>
  <circle id="Ellipse_2" data-name="Ellipse 2" cx="42.062" cy="42.062" r="42.062" transform="translate(351.243 99.546)" fill="#3c354c"/>
  <circle id="Ellipse_3" data-name="Ellipse 3" cx="42.062" cy="42.062" r="42.062" transform="translate(348.439 138.804)" fill="#3c354c"/>
  <path id="Path_28" data-name="Path 28" d="M620.274,228.825S618.4,255,609.992,258.736s26.172,60.756,26.172,60.756l14.021-17.759-11.216-31.78s8.412-26.172,12.151-28.041S620.274,228.825,620.274,228.825Z" transform="translate(-248 -77.403)" fill="#ffc1c7"/>
  <path id="Path_29" data-name="Path 29" d="M620.274,228.825S618.4,255,609.992,258.736s26.172,60.756,26.172,60.756l14.021-17.759-11.216-31.78s8.412-26.172,12.151-28.041S620.274,228.825,620.274,228.825Z" transform="translate(-248 -77.403)" opacity="0.1"/>
  <path id="Path_30" data-name="Path 30" d="M735.243,362.489s41.127,21.5,32.715,45.8-26.172-27.107-26.172-27.107L727.766,370.9Z" transform="translate(-248 -77.403)" fill="#ffc1c7"/>
  <path id="Path_31" data-name="Path 31" d="M735.243,426.049s15.89,34.584,2.8,36.454-14.021-30.845-14.021-30.845Z" transform="translate(-248 -77.403)" fill="#ffc1c7"/>
  <path id="Path_32" data-name="Path 32" d="M667.01,326.97c.935,0,8.412,2.8,8.412,2.8s28.041,51.409,39.258,61.691,27.107,35.519,24.3,37.388-23.368,14.955-25.237,11.216-9.347-17.759-14.021-20.564-28.041-33.65-34.584-36.454-21.5-47.67-21.5-47.67Z" transform="translate(-248 -77.403)" fill="#6c63ff"/>
  <path id="Path_33" data-name="Path 33" d="M667.01,326.97c.935,0,8.412,2.8,8.412,2.8s28.041,51.409,39.258,61.691,27.107,35.519,24.3,37.388-23.368,14.955-25.237,11.216-9.347-17.759-14.021-20.564-28.041-33.65-34.584-36.454-21.5-47.67-21.5-47.67Z" transform="translate(-248 -77.403)" opacity="0.1"/>
  <circle id="Ellipse_4" data-name="Ellipse 4" cx="27.574" cy="27.574" r="27.574" transform="translate(362.46 121.979)" fill="#ffc1c7"/>
  <path id="Path_34" data-name="Path 34" d="M675.422,329.774s-14.955,17.759-16.825,18.694c-.7.355-5.375,2.421-10.927,4.87-9.207,4.057-20.853,9.151-20.853,9.151s-7.478,4.674-11.216,4.674-24.3,10.282-24.3,10.282-14.955,11.217-24.3,11.217-.935,5.608-13.086,4.674-1.869-35.519,3.739-40.192,6.543-23.368,5.608-28.976,4.674-26.172,12.151-52.344,23.368-15.89,23.368-15.89,9.347-5.608,10.282-5.608,10.282,15.89,12.151,25.237c1.159,5.8,8.786,17.694,14.413,25.9,3.449,5.038,6.15,8.683,6.15,8.683s0-1.748-.047-4.159c-.075-4.169-.3-10.291-.888-12.665-.935-3.739-1.869-23.368-1.869-23.368s0-.935,2.8-.935S667.01,303.6,667.01,303.6l1.869,18.694,3.2,3.655Z" transform="translate(-248 -77.403)" fill="#6c63ff"/>
  <path id="Path_35" data-name="Path 35" d="M675.422,329.774s-14.955,17.759-16.825,18.694c-.7.355-5.375,2.421-10.927,4.87-26.938-6.833-57.774-22.162-57.774-22.162s-8.88-31.313-1.4-45.333,28.976,1.869,28.976,1.869,8.188,6.328,18.152,13.75c1.982,1.477,4.029,3,6.1,4.524,10.843,7.973,22.218,16,26.873,18.18.851.393,2.028,1,3.477,1.785Z" transform="translate(-248 -77.403)" opacity="0.1"/>
  <path id="Path_36" data-name="Path 36" d="M581.951,329.774s69.168,21.5,86.928,23.368,49.54,37.388,52.344,36.454,22.433-24.3,17.759-28.041S678.6,324.166,668.6,319.492s-51.129-36.454-51.129-36.454-21.5-15.89-28.976-1.869S581.951,329.774,581.951,329.774Z" transform="translate(-248 -77.403)" fill="#6c63ff"/>
  <path id="Path_37" data-name="Path 37" d="M617.47,434.461s-11.216-8.412-18.694-6.543-16.825,7.478-15.89,19.629a200.105,200.105,0,0,0,2.8,21.5h.935l2.8-16.825s8.412,3.739,10.282,10.282,25.237,19.629,30.845,14.955-5.608-10.282-5.608-10.282Z" transform="translate(-248 -77.403)" fill="#f2f2f2"/>
  <path id="Path_38" data-name="Path 38" d="M617.47,434.461s-11.216-8.412-18.694-6.543-16.825,7.478-15.89,19.629a200.105,200.105,0,0,0,2.8,21.5h.935l2.8-16.825s8.412,3.739,10.282,10.282,25.237,19.629,30.845,14.955-5.608-10.282-5.608-10.282Z" transform="translate(-248 -77.403)" fill="#2f2e41"/>
  <path id="Path_39" data-name="Path 39" d="M638.034,441.939s80.385-9.347,76.646-24.3-31.78-31.78-31.78-31.78L636.164,395.2l-30.618,33.136,11.924,6.122Z" transform="translate(-248 -77.403)" fill="#2f2e41"/>
  <path id="Path_40" data-name="Path 40" d="M601.58,455.025s-15.89,27.107-20.564,28.041-10.282,6.543-3.739,18.694a66.384,66.384,0,0,1,7.478,23.368h1.869L585.69,508.3s12.151,19.629,13.086,27.107,35.519,14.955,41.127,4.674-7.478-17.759-7.478-17.759S612.8,500.826,615.6,485.87s5.608-18.694,5.608-18.694Z" transform="translate(-248 -77.403)" fill="#2f2e41"/>
  <path id="Path_41" data-name="Path 41" d="M550.171,387.726S541.759,441,572.6,439.135s95.34-40.192,95.34-40.192l19.629-21.5s14.021-19.629-9.347-25.237-61.691,14.021-61.691,14.021l-57.952,25.237Z" transform="translate(-248 -77.403)" fill="#2f2e41"/>
  <path id="Path_42" data-name="Path 42" d="M683.834,372.77l3.739,4.674s-57.017,92.536-62.625,93.471-25.237-13.086-25.237-15.89,7.478-18.694,9.347-20.564,20.564-44.866,24.3-47.67S683.834,372.77,683.834,372.77Z" transform="translate(-248 -77.403)" fill="#2f2e41"/>
  <ellipse id="Ellipse_5" data-name="Ellipse 5" cx="30.845" cy="21.031" rx="30.845" ry="21.031" transform="translate(360.59 107.024)" fill="#3c354c"/>
  <circle id="Ellipse_6" data-name="Ellipse 6" cx="57" cy="57" r="57" transform="translate(319.21 533.219)" fill="#6c63ff"/>
</svg>
