<svg xmlns="http://www.w3.org/2000/svg" width="1050.547" height="895.828" viewBox="0 0 1050.547 895.828">
  <g id="Path_1" data-name="Path 1" transform="translate(-177.913 -153.543)" fill="#7036ff" stroke-linejoin="round">
    <path d="M 712.8235473632812 1041.871215820312 L 185.4508209228516 1041.871215820312 C 187.4784851074219 515.861328125 187.4971618652344 220.3306732177734 185.5108795166016 161.3287506103516 C 204.0298461914062 161.68017578125 261.8744812011719 162.024658203125 448.7371520996094 162.024658203125 C 727.6827392578125 162.024658203125 1137.783813476562 161.2293548583984 1215.529296875 161.0733795166016 L 712.8235473632812 1041.871215820312 Z M 177.082763671875 159.9215698242188 L 171.1964416503906 156.7942352294922 L 179.6538696289062 146.2770843505859 L 184.1792144775391 151.0965881347656 L 177.082763671875 159.9215698242188 Z M 185.0809783935547 152.6089935302734 C 185.0626525878906 152.3893432617188 185.0442962646484 152.1864929199219 185.0256958007812 151.9981079101562 L 185.3064422607422 152.2970886230469 L 185.0809783935547 152.6089935302734 Z" stroke="none"/>
    <path d="M 1202.598510742188 168.5992431640625 C 1099.969848632812 168.8016357421875 714.7300415039062 169.5247802734375 448.7371215820312 169.5247802734375 C 283.9354248046875 169.5247802734375 219.2332763671875 169.2720947265625 193.1846923828125 168.9271240234375 C 194.569091796875 220.1512451171875 195.42138671875 398.0171508789062 192.9796142578125 1034.37109375 L 708.468505859375 1034.37109375 L 1202.598510742188 168.5992431640625 M 177.9344482421875 153.5430908203125 C 177.9483642578125 153.5430908203125 177.96240234375 153.5579833984375 177.97607421875 153.5870361328125 C 177.9190673828125 153.573974609375 177.9005126953125 153.560546875 177.9217529296875 153.547119140625 C 177.926025390625 153.54443359375 177.93017578125 153.5430908203125 177.9344482421875 153.5430908203125 Z M 1228.46044921875 153.547119140625 L 717.1785888671875 1049.37109375 L 177.9217529296875 1049.37109375 C 177.9217529296875 1049.37109375 181.364990234375 160.750732421875 177.97607421875 153.5870361328125 C 181.036376953125 154.289306640625 295.923095703125 154.524658203125 448.7371215820312 154.524658203125 C 760.008056640625 154.524658203125 1228.46044921875 153.547119140625 1228.46044921875 153.547119140625 Z" stroke="none" fill="#7036ff"/>
  </g>
</svg>
